<svg width="20" height="18" viewBox="0 0 20 18" fill="none" xmlns="http://www.w3.org/2000/svg">
<path d="M17.4453 7.67395L16.4589 7.83835L16.4589 7.83835L17.4453 7.67395ZM2.55438 7.67395L3.54078 7.83835L3.54078 7.83835L2.55438 7.67395ZM3.02916 5.89258L2.19647 5.33884L2.19647 5.33884L3.02916 5.89258ZM3.87593 5.17521L4.28524 6.0876L4.28524 6.0876L3.87593 5.17521ZM2.36617 16.7349L1.86861 17.6023L1.86861 17.6023L2.36617 16.7349ZM1.62067 13.2762L0.634276 13.1118L1.62067 13.2762ZM1.48595 15.6964L0.548525 16.0446L0.548525 16.0446L1.48595 15.6964ZM18.3792 13.2777L19.3656 13.1133L19.3656 13.1133L18.3792 13.2777ZM18.5138 15.6964L19.4512 16.0446L19.4512 16.0446L18.5138 15.6964ZM17.6343 16.7349L18.1318 17.6023L18.1318 17.6023L17.6343 16.7349ZM16.9707 5.89258L17.8034 5.33884L17.8034 5.33884L16.9707 5.89258ZM16.1242 5.17521L15.7149 6.0876L15.7149 6.0876L16.1242 5.17521ZM15.2224 16H4.7773V18H15.2224V16ZM5.71089 6H5.99995V4H5.71089V6ZM5.99995 6H14V4H5.99995V6ZM14 6H14.2893V4H14V6ZM3.54078 7.83835C3.62239 7.34868 3.67524 7.03597 3.73339 6.79922C3.78855 6.57466 3.83254 6.49041 3.86186 6.44631L2.19647 5.33884C1.98876 5.65119 1.87452 5.98264 1.79113 6.32216C1.71073 6.64949 1.6447 7.04926 1.56799 7.50955L3.54078 7.83835ZM5.71089 4C5.2444 4 4.83925 3.99934 4.50329 4.02475C4.15477 4.05111 3.80899 4.10922 3.46662 4.26281L4.28524 6.0876C4.33343 6.06599 4.4236 6.03649 4.65414 6.01905C4.89726 6.00066 5.21432 6 5.71089 6V4ZM3.86186 6.44631C3.96637 6.28915 4.11317 6.16479 4.28524 6.0876L3.46662 4.26281C2.95015 4.4945 2.50984 4.86761 2.19647 5.33884L3.86186 6.44631ZM4.7773 16C4.1097 16 3.67336 15.9991 3.34403 15.9706C3.02412 15.9429 2.91277 15.8956 2.86373 15.8674L1.86861 17.6023C2.28179 17.8393 2.72622 17.9246 3.17142 17.9631C3.60721 18.0009 4.14532 18 4.7773 18V16ZM0.634276 13.1118C0.5305 13.7345 0.44123 14.2647 0.406844 14.7006C0.371721 15.1458 0.382712 15.5981 0.548525 16.0446L2.42338 15.3482C2.40376 15.2954 2.37541 15.1779 2.40065 14.8579C2.42663 14.5286 2.49744 14.0984 2.60706 13.4406L0.634276 13.1118ZM2.86373 15.8674C2.66042 15.7508 2.50459 15.5668 2.42338 15.3482L0.548525 16.0446C0.792953 16.7026 1.26065 17.2536 1.86861 17.6023L2.86373 15.8674ZM17.3928 13.4421C17.5024 14.0994 17.5731 14.5292 17.5991 14.8583C17.6243 15.178 17.596 15.2954 17.5764 15.3482L19.4512 16.0446C19.617 15.5982 19.628 15.146 19.5929 14.701C19.5585 14.2654 19.4693 13.7355 19.3656 13.1133L17.3928 13.4421ZM15.2224 18C15.8543 18 16.3926 18.0009 16.8286 17.9631C17.2738 17.9246 17.7186 17.8394 18.1318 17.6023L17.1367 15.8674C17.0878 15.8955 16.9763 15.9429 16.6561 15.9706C16.3265 15.9991 15.8899 16 15.2224 16V18ZM17.5764 15.3482C17.4949 15.5676 17.3393 15.7512 17.1367 15.8674L18.1318 17.6023C18.7405 17.2532 19.2071 16.7019 19.4512 16.0446L17.5764 15.3482ZM18.4317 7.50955C18.355 7.04935 18.289 6.64958 18.2086 6.3223C18.1253 5.98282 18.0111 5.65128 17.8034 5.33884L16.138 6.44631C16.1672 6.49031 16.2112 6.57448 16.2663 6.79908C16.3244 7.03589 16.3772 7.34858 16.4589 7.83835L18.4317 7.50955ZM14.2893 6C14.7859 6 15.1029 6.00066 15.346 6.01905C15.5765 6.03649 15.6667 6.06598 15.7149 6.0876L16.5335 4.26281C16.1911 4.10922 15.8454 4.05111 15.4969 4.02475C15.1609 3.99934 14.7558 4 14.2893 4V6ZM17.8034 5.33884C17.4902 4.8679 17.0503 4.49465 16.5335 4.26281L15.7149 6.0876C15.8866 6.16465 16.0333 6.28886 16.138 6.44631L17.8034 5.33884ZM15 5C15 2.23858 12.7614 0 9.99996 0V2C11.6568 2 13 3.34315 13 5H15ZM9.99996 0C7.23853 0 4.99995 2.23858 4.99995 5H6.99995C6.99995 3.34315 8.3431 2 9.99996 2V0ZM16.4589 7.83835L17.3928 13.4421L19.3656 13.1133L18.4317 7.50955L16.4589 7.83835ZM2.60706 13.4406L3.54078 7.83835L1.56799 7.50955L0.634276 13.1118L2.60706 13.4406Z" fill="white"/>
</svg>
