<svg xmlns="http://www.w3.org/2000/svg" width="18" height="20.72" viewBox="0 0 18 20.72">
  <g id="Iconly_Bold_Home" data-name="Iconly/Bold/Home" transform="translate(-2.5 -2)">
    <g id="Home" transform="translate(2.5 2)">
      <path id="Path_1" data-name="Path 1" d="M6.286,19.449V16.281a1.41,1.41,0,0,1,1.349-1.464h2.723a1.3,1.3,0,0,1,.954.429,1.53,1.53,0,0,1,.4,1.035v3.168a1.32,1.32,0,0,0,.337.9,1.118,1.118,0,0,0,.825.373h1.858a3.14,3.14,0,0,0,2.315-1.035A3.7,3.7,0,0,0,18,17.175V8.15a2.663,2.663,0,0,0-.848-1.971L10.832.7A2.744,2.744,0,0,0,7.091.774L.916,6.179A2.649,2.649,0,0,0,0,8.15v9.015A3.423,3.423,0,0,0,3.274,20.72H5.09A1.223,1.223,0,0,0,6.26,19.458Z"/>
    </g>
  </g>
</svg>
