<svg xmlns="http://www.w3.org/2000/svg" width="18" height="20.722" viewBox="0 0 18 20.722">
  <g id="Iconly_Bold_Bag" data-name="Iconly/Bold/Bag" transform="translate(-3 -2)">
    <g id="Bag" transform="translate(3 2)">
      <path id="Combined-Shape" d="M9,0a5.074,5.074,0,0,1,5,4.947h-.026a.537.537,0,0,1-.044.234h.156c1.217,0,2.491.874,3,2.984l.056.249.769,6.418c.553,4.094-1.608,5.815-4.557,5.888l-.2,0H4.869c-3,0-5.306-1.131-4.8-5.612L.1,14.831.883,8.413c.384-2.272,1.671-3.168,2.911-3.229l.138,0H4.01a.7.7,0,0,1,0-.234A5.074,5.074,0,0,1,9,0ZM6.1,8.63a.944.944,0,1,0,.884.942h0l-.007-.118A.906.906,0,0,0,6.1,8.63Zm5.789,0a.944.944,0,1,0,.884.942A.915.915,0,0,0,11.886,8.63ZM8.966,1.349a3.542,3.542,0,0,0-3.484,3.6.7.7,0,0,1,0,.234h7.011a.693.693,0,0,1-.043-.234A3.542,3.542,0,0,0,8.966,1.349Z" transform="translate(0 0)" fill="#141414"/>
    </g>
  </g>
</svg>
