<svg xmlns="http://www.w3.org/2000/svg" width="18" height="20.722" viewBox="0 0 18 20.722">
  <g id="Iconly_Light-Outline_Bag" data-name="Iconly/Light-Outline/Bag" transform="translate(-2 -2)">
    <g id="Bag" transform="translate(2 2)">
      <path id="Combined-Shape" d="M8.989,0A4.832,4.832,0,0,1,13.62,4.539h.068c1.333,0,2.953.963,3.5,3.664l.725,6.107A6.032,6.032,0,0,1,16.945,19a5.029,5.029,0,0,1-4.114,1.725H5.158c-1.969,0-3.342-.525-4.2-1.6S-.182,16.413.111,14.3L.824,8.269C1.293,5.506,3.007,4.54,4.334,4.54A5.319,5.319,0,0,1,5.68,1.477,4.512,4.512,0,0,1,8.97,0Zm4.7,6.04H4.334c-.405,0-1.76.178-2.149,2.462l-.709,6c-.231,1.683-.052,2.9.531,3.638s1.607,1.082,3.151,1.082H12.83A3.844,3.844,0,0,0,15.9,18.015a4.552,4.552,0,0,0,.645-3.5l-.716-6.052C15.527,6.97,14.721,6.04,13.688,6.04ZM11.669,8.824a.739.739,0,0,1,.71.75.705.705,0,0,1-.668.75h-.042a.753.753,0,0,1,0-1.5Zm-5.358,0a.739.739,0,0,1,.71.75.706.706,0,0,1-.669.75H6.311a.753.753,0,0,1,0-1.5ZM8.986,1.5H8.972A3.177,3.177,0,0,0,6.654,2.54a3.722,3.722,0,0,0-.929,2h6.506A3.388,3.388,0,0,0,8.986,1.5Z" transform="translate(0 0)" fill="#141414" fill-rule="evenodd"/>
    </g>
  </g>
</svg>
