<svg xmlns="http://www.w3.org/2000/svg" width="18" height="20.72" viewBox="0 0 18 20.72">
  <g id="Iconly_Light-Outline_Home" data-name="Iconly/Light-Outline/Home" transform="translate(-2 -1)">
    <g id="Home" transform="translate(2 1)">
      <path id="Fill-1" d="M10.288,13.769a2.012,2.012,0,0,1,1.918,2.09v2.964a.436.436,0,0,0,.413.452h1.674a2.5,2.5,0,0,0,2.391-2.59V8.28A1.671,1.671,0,0,0,16.1,7.018L10.308,1.952a1.976,1.976,0,0,0-2.644,0L1.915,7.016a1.669,1.669,0,0,0-.6,1.28v8.389a2.5,2.5,0,0,0,2.391,2.59H5.4a.448.448,0,0,0,.431-.462.85.85,0,0,1,.017-.165V15.859a2.016,2.016,0,0,1,1.9-2.09Zm4,6.951H12.6a1.82,1.82,0,0,1-1.714-1.9V15.859a.624.624,0,0,0-.6-.645H7.754a.625.625,0,0,0-.592.645v2.954a.763.763,0,0,1-.027.207A1.814,1.814,0,0,1,5.4,20.72H3.708A3.886,3.886,0,0,1,0,16.685v-8.4A3.146,3.146,0,0,1,1.105,5.878L6.843.824a3.2,3.2,0,0,1,4.285,0L16.908,5.88A3.151,3.151,0,0,1,18,8.269v8.416a3.886,3.886,0,0,1-3.708,4.035Z" transform="translate(0 0)" fill-rule="evenodd"/>
    </g>
  </g>
</svg>
